inDegrees=yes
name=ik_Xsens_quaternion
DataType=double
version=3
OpenSimVersion=4.4-2022-07-23-0e9fedc
endheader
time	pelvis_tilt	pelvis_list	pelvis_rotation	pelvis_tx	pelvis_ty	pelvis_tz	hip_flexion_r	hip_adduction_r	hip_rotation_r	knee_angle_r	knee_angle_r_beta	ankle_angle_r	subtalar_angle_r	mtp_angle_r	hip_flexion_l	hip_adduction_l	hip_rotation_l	knee_angle_l	knee_angle_l_beta	ankle_angle_l	subtalar_angle_l	mtp_angle_l	lumbar_extension	lumbar_bending	lumbar_rotation	arm_flex_r	arm_add_r	arm_rot_r	elbow_flex_r	pro_sup_r	wrist_flex_r	wrist_dev_r	arm_flex_l	arm_add_l	arm_rot_l	elbow_flex_l	pro_sup_l	wrist_flex_l	wrist_dev_l
52.15	0	0	0	0	0.93	0	4.594144125593695e-49	0	0	2.426570649309934e-20	-1.873444121623021e-38	0	0	0	4.594144125593695e-49	0	0	2.426570649309934e-20	-1.175494350822288e-38	0	0	0	0	0	0	9.252759041988802e-06	0.0004583677523833707	1.18069408961782e-05	0.0002970189477375134	0.0006519984040230951	0	0	-293.7769215764717	-23.22856367314427	-363.1734416224563	113.8273198019249	-57.89164552407377	0	0
52.16666666666666	0	0	0	0	0.93	0	4.594144125593695e-49	0	0	2.426570649309934e-20	-1.873444121623021e-38	0	0	0	4.594144125593695e-49	0	0	2.426570649309934e-20	-1.175494350822288e-38	0	0	0	0	0	0	9.252759041988802e-06	0.0004583677523833707	1.18069408961782e-05	0.0002970189477375134	0.0006519984040230951	0	0	-293.7898283380352	-23.23369897134105	-363.1709260107957	113.8383452575162	-57.88947743488701	0	0
52.18333333333333	0	0	0	0	0.93	0	4.594144125593695e-49	0	0	2.426570649309934e-20	-1.873444121623021e-38	0	0	0	4.594144125593695e-49	0	0	2.426570649309934e-20	-1.175494350822288e-38	0	0	0	0	0	0	9.252759041988802e-06	0.0004583677523833707	1.18069408961782e-05	0.0002970189477375134	0.0006519984040230951	0	0	-293.8050410741293	-23.24489754534914	-363.1648848304982	113.8385638348843	-57.87189660713648	0	0
52.2	0	0	0	0	0.93	0	4.594144125593695e-49	0	0	2.426570649309934e-20	5.2415405151875e-23	0	0	0	4.594144125593695e-49	0	0	2.426570649309934e-20	5.2415405151875e-23	0	0	0	0	0	0	9.252759041988802e-06	0.0004583677523833707	1.18069408961782e-05	0.0002970189477375134	0.0006519984040230951	0	0	-293.8243320311201	-23.25031848712347	-363.1517320247222	113.8453048445727	-57.8549501520828	0	0
52.21666666666667	0	0	0	0	0.93	0	4.594144125593695e-49	0	0	2.426570649309934e-20	5.2415405151875e-23	0	0	0	4.594144125593695e-49	0	0	2.426570649309934e-20	5.2415405151875e-23	0	0	0	0	0	0	9.252759041988802e-06	0.0004583677523833707	1.18069408961782e-05	0.0002970189477375134	0.0006519984040230951	0	0	-293.8428957670596	-23.25063515425775	-363.1420135942795	113.8556382178766	-57.84671633460341	0	0
52.23333333333333	0	0	0	0	0.93	0	4.594144125593695e-49	0	0	2.426570649309934e-20	1.0483081030375e-22	0	0	0	4.594144125593695e-49	0	0	2.426570649309934e-20	1.0483081030375e-22	0	0	0	0	0	0	9.252759041988802e-06	0.0004583677523833707	1.18069408961782e-05	0.0002970189477375134	0.0006519984040230951	0	0	-293.8550494823613	-23.25780761819454	-363.1327952964861	113.852431549583	-57.84003570281292	0	0
52.25	0	0	0	0	0.93	0	4.594144125593695e-49	0	0	2.426570649309934e-20	1.0483081030375e-22	0	0	0	4.594144125593695e-49	0	0	2.426570649309934e-20	1.0483081030375e-22	0	0	0	0	0	0	9.252759041988802e-06	0.0004583677523833707	1.18069408961782e-05	0.0002970189477375134	0.0006519984040230951	0	0	-293.868576328776	-23.26144805832796	-363.1262210278898	113.8507509674298	-57.81914431918122	0	0
52.26666666666667	0	0	0	0	0.93	0	4.594144125593695e-49	0	0	2.426570649309934e-20	5.2415405151875e-23	0	0	0	4.594144125593695e-49	0	0	2.426570649309934e-20	5.2415405151875e-23	0	0	0	0	0	0	9.252759041988802e-06	0.0004583677523833707	1.18069408961782e-05	0.0002970189477375134	0.0006519984040230951	0	0	-293.8887068938896	-23.25523135053974	-363.1214376006699	113.8546571859921	-57.80466130597691	0	0
52.28333333333333	0	0	0	0	0.93	0	4.594144125593695e-49	0	0	2.426570649309934e-20	5.2415405151875e-23	0	0	0	4.594144125593695e-49	0	0	2.426570649309934e-20	5.2415405151875e-23	0	0	0	0	0	0	9.252759041988802e-06	0.0004583677523833707	1.18069408961782e-05	0.0002970189477375134	0.0006519984040230951	0	0	-293.9043015772172	-23.25149133863642	-363.120094200809	113.8564903419446	-57.81229704594787	0	0
52.3	0	0	0	0	0.93	0	4.594144125593695e-49	0	0	2.426570649309934e-20	1.048308103037508e-22	0	0	0	4.594144125593695e-49	0	0	2.426570649309934e-20	1.048308103037508e-22	0	0	0	0	0	0	9.252759041988802e-06	0.0004583677523833707	1.18069408961782e-05	0.0002970189477375134	0.0006519984040230951	0	0	-293.9173728238814	-23.24036019915529	-363.113895170278	113.8538321954106	-57.81160474967977	0	0
52.31666666666666	0	0	0	0	0.93	0	4.594144125593695e-49	0	0	2.426570649309934e-20	1.048308103037508e-22	0	0	0	4.594144125593695e-49	0	0	2.426570649309934e-20	1.048308103037508e-22	0	0	0	0	0	0	9.252759041988802e-06	0.0004583677523833707	1.18069408961782e-05	0.0002970189477375134	0.0006519984040230951	0	0	-293.9278124593537	-23.23452396508869	-363.1114337119898	113.8512568216371	-57.81624763007064	0	0
52.33333333333334	0	0	0	0	0.93	0	4.594144125593695e-49	0	0	2.426570649309934e-20	5.241540515187566e-23	0	0	0	4.594144125593695e-49	0	0	2.426570649309934e-20	5.241540515187566e-23	0	0	0	0	0	0	9.252759041988802e-06	0.0004583677523833707	1.18069408961782e-05	0.0002970189477375134	0.0006519984040230951	0	0	-293.9393607007457	-23.22580253271364	-363.1149742950895	113.855209532285	-57.82144263606809	0	0
52.35	0	0	0	0	0.93	0	4.594144125593695e-49	0	0	2.426570649309934e-20	1.048308103037507e-22	0	0	0	4.594144125593695e-49	0	0	2.426570649309934e-20	1.048308103037507e-22	0	0	0	0	0	0	9.252759041988802e-06	0.0004583677523833707	1.18069408961782e-05	0.0002970189477375134	0.0006519984040230951	0	0	-293.9526979930581	-23.21197134073454	-363.1067946850099	113.865370888004	-57.80380468443605	0	0
52.36666666666667	0	0	0	0	0.93	0	4.594144125593695e-49	0	0	2.426570649309934e-20	1.048308103037507e-22	0	0	0	4.594144125593695e-49	0	0	2.426570649309934e-20	1.048308103037507e-22	0	0	0	0	0	0	9.252759041988802e-06	0.0004583677523833707	1.18069408961782e-05	0.0002970189477375134	0.0006519984040230951	0	0	-293.9662627320288	-23.21184466815598	-363.1015382145238	113.8584279386013	-57.79310045242467	0	0
52.38333333333333	0	0	0	0	0.93	0	4.594144125593695e-49	0	0	2.426570649309934e-20	1.048308103037507e-22	0	0	0	4.594144125593695e-49	0	0	2.426570649309934e-20	1.048308103037507e-22	0	0	0	0	0	0	9.252759041988802e-06	0.0004583677523833707	1.18069408961782e-05	0.0002970189477375134	0.0006519984040230951	0	0	-293.9890764115247	-23.19168125929109	-363.0818415213748	113.8743779265823	-57.76219134606624	0	0
52.4	0	0	0	0	0.93	0	4.594144125593695e-49	0	0	2.426570649309934e-20	1.048308103037507e-22	0	0	0	4.594144125593695e-49	0	0	2.426570649309934e-20	1.048308103037507e-22	0	0	0	0	0	0	9.252759041988802e-06	0.0004583677523833707	1.18069408961782e-05	0.0002970189477375134	0.0006519984040230951	0	0	-294.0069079735266	-23.19464797767451	-363.0610487331398	113.8877971368353	-57.7590261022476	0	0
52.41666666666666	0	0	0	0	0.93	0	4.594144125593695e-49	0	0	2.426570649309934e-20	5.241540515187566e-23	0	0	0	4.594144125593695e-49	0	0	2.426570649309934e-20	5.241540515187566e-23	0	0	0	0	0	0	9.252759041988802e-06	0.0004583677523833707	1.18069408961782e-05	0.0002970189477375134	0.0006519984040230951	0	0	-294.0352554950949	-23.18525286830055	-363.0552135601532	113.9213273114326	-57.74059316422412	0	0
52.43333333333333	0	0	0	0	0.93	0	4.594144125593695e-49	0	0	2.426570649309934e-20	1.048308103037507e-22	0	0	0	4.594144125593695e-49	0	0	2.426570649309934e-20	1.048308103037507e-22	0	0	0	0	0	0	9.252759041988802e-06	0.0004583677523833707	1.18069408961782e-05	0.0002970189477375134	0.0006519984040230951	0	0	-294.0450935059104	-23.19675325680319	-363.0519659899925	113.9251392127981	-57.7310071702882	0	0
52.45	0	0	0	0	0.93	0	4.594144125593695e-49	0	0	2.426570649309934e-20	1.048308103037507e-22	0	0	0	4.594144125593695e-49	0	0	2.426570649309934e-20	1.048308103037507e-22	0	0	0	0	0	0	9.252759041988802e-06	0.0004583677523833707	1.18069408961782e-05	0.0002970189477375134	0.0006519984040230951	0	0	-294.0569924408874	-23.20055926458287	-363.0439717272225	113.9313550767179	-57.72762107047782	0	0
52.46666666666667	0	0	0	0	0.93	0	4.594144125593695e-49	0	0	2.426570649309934e-20	1.048308103037507e-22	0	0	0	4.594144125593695e-49	0	0	2.426570649309934e-20	1.048308103037507e-22	0	0	0	0	0	0	9.252759041988802e-06	0.0004583677523833707	1.18069408961782e-05	0.0002970189477375134	0.0006519984040230951	0	0	-294.0705316374025	-23.20633404431516	-363.0386531792888	113.9393742900843	-57.7314472473415	0	0
52.48333333333333	0	0	1.670236025381384e-31	0	0.93	0	9.08956705788762e-35	0	0	2.426570649309934e-20	1.048308103037507e-22	0	0	0	9.08956705788762e-35	0	0	2.426570649309934e-20	1.048308103037507e-22	0	0	0	0	0	1.670236025381384e-31	9.252759041988802e-06	0.0004583677523833707	1.18069408961782e-05	0.0002970189477375134	0.0006519984040230951	0	0	-294.0815832016324	-23.21169681245927	-363.0372157082757	113.9334186706841	-57.72790426706614	0	0
52.5	0	0	7.178350196240149e-51	0	0.93	0	1.099630359515605e-34	0	0	2.426570649309934e-20	1.048308103037507e-22	0	0	0	1.099630359515605e-34	0	0	2.426570649309934e-20	1.048308103037507e-22	0	0	0	0	0	7.178350196240149e-51	9.252759041988802e-06	0.0004583677523833707	1.18069408961782e-05	0.0002970189477375134	0.0006519984040230951	0	0	-294.093644803763	-23.21999659908931	-363.0350897063045	113.9236129318689	-57.72084470655299	0	0
52.51666666666667	4.413906298050156e-32	0	7.106573800851655e-55	0	0.93	0	9.14973132357434e-35	0	0	2.426570649309934e-20	5.234781389846083e-23	0	0	0	9.14973132357434e-35	0	0	2.426570649309934e-20	5.234781389846083e-23	0	0	0	4.413906298050156e-32	0	7.106573800851655e-55	9.252759041988802e-06	0.0004583677523833707	1.18069408961782e-05	0.0002970189477375134	0.0006519984040230951	0	-1.508659379216362e-34	-294.1094923090056	-23.23372532645853	-363.0316740016311	113.9121721878836	-57.71347285192947	0	-1.508659379216362e-34
52.53333333333333	1.794587549060037e-51	0	3.166822459971239e-74	0	0.93	0	4.594144125593695e-49	0	0	2.426570649309934e-20	5.234781389846083e-23	0	0	0	4.594144125593695e-49	0	0	2.426570649309934e-20	5.234781389846083e-23	0	0	0	1.794587549060037e-51	0	3.166822459971239e-74	9.252759041988802e-06	0.0004583677523833707	1.18069408961782e-05	0.0002970189477375134	0.0006519984040230951	0	-7.01010761351577e-54	-294.1315304495524	-23.25623928796154	-363.0354409110785	113.9012089137127	-57.70478894271155	0	-7.01010761351577e-54
52.55	6.485652398021097e-71	0	1.287553421616265e-93	0	0.93	0	4.594144125593695e-49	0	0	2.426570649309934e-20	5.234781389846083e-23	0	0	0	4.594144125593695e-49	0	0	2.426570649309934e-20	5.234781389846083e-23	0	0	0	6.485652398021097e-71	0	1.287553421616265e-93	9.252759041988802e-06	0.0004583677523833707	1.18069408961782e-05	0.0002970189477375134	0.0006519984040230951	0	-2.533457967976991e-73	-294.1635098404128	-23.28855144332595	-363.0491602618408	113.8958579918883	-57.70340712270157	0	-2.533457967976991e-73
52.56666666666666	0	0	0	0	0.93	0	0	0	0	0	0	0	0	0	0	0	0	0	0	0	0	0	0	0	0	9.252759041988802e-06	0.0004583677523999473	1.18069409111847e-05	0.0002970189477531952	0.0006519984040563359	0	0	-294.1934315027895	-23.33147921901562	-363.0591295834325	113.9019815260136	-57.69973831005357	0	0
52.58333333333334	0	0	0	0	0.93	0	0	0	0	0	0	0	0	0	0	0	0	0	0	0	0	0	0	0	0	9.252759041988802e-06	0.0004583677523999473	1.18069409111847e-05	0.0002970189477531952	0.0006519984040563359	0	0	-294.2324637832077	-23.38246345066435	-363.0703101181337	113.8980869898087	-57.69216398283294	0	0
